<?xml version="1.0"?>
<svg width="900" height="600" xmlns="http://www.w3.org/2000/svg">
 <metadata id="metadata7">image/svg+xmlSch&#233;ma de Coupe d'une Vache21-04-2009HastatiInternational</metadata>
 <g>
  <title>Calf</title>
  <g id="svg_3">
   <path fill="none" fill-rule="evenodd" stroke="#000000" stroke-linecap="round" stroke-linejoin="round" stroke-miterlimit="4" stroke-dasharray="5,5" d="m827.145874,268.374481l-0.756042,57.676575m-0.630066,-136.370117c-13.982849,16.44136 -17.08667,37.177917 -30.740479,55.710785c-19.473938,30.895477 -21.03125,53.656464 -36.086609,78.368317c-1.264832,20.337158 -1.625916,40.20752 6.950012,59.142761c3.945007,-2.162781 7.863525,-4.417877 11.661316,-9.46283c4.127319,-5.482422 10.630981,-10.085632 10.792603,-17.692871c0.49176,-23.150055 -2.690613,-48.150879 7.484619,-68.772186c10.289368,-20.852386 22.161316,-37.506058 30.46521,-56.335403m15.602661,223.581833c-4.333618,10.028381 -2.18457,25.597778 -1.890137,39.58197c1.636047,9.071167 2.289368,17.554352 0.377991,24.503143c-0.986572,4.507629 -2.663391,7.914124 -7.182617,6.7854c-7.504517,-2.301758 -18.133667,-2.377869 -30.620483,-1.130859c6.296631,-11.62262 9.338562,-22.554504 10.962952,-33.550446c8.159302,-55.230255 -14.46991,-85.778625 -35.912903,-116.861115c-3.90625,5.009247 -7.812622,7.183655 -11.718933,9.424316c4.464172,8.783905 2.798706,17.56781 5.323914,26.351715c-6.008057,17.938446 -24.701111,38.041565 -31.809631,77.302094c-3.277771,16.200745 -8.812195,28.413635 -6.949951,50.379639c1.045959,12.338501 -10.57019,15.744202 -16.305847,17.326416c-9.89209,-4.701294 -21.04834,-3.730164 -32.344238,-2.132568c7.594482,-11.855042 15.78418,-25.865906 17.642334,-39.717224c2.937012,-21.893738 13.147034,-57.348145 13.098083,-82.100159c2.982666,-26.89035 -3.62439,-33.183685 -9.623108,-40.783539c-15.055054,-15.904968 -22.501953,-32.442169 -29.136536,-49.046875c-7.930176,-22.41803 -15.860291,-33.950195 -23.790466,-50.646179m63.428345,130.481049c-1.287903,-1.576508 -10.943176,-6.462128 -12.94751,-0.094238c0.001709,15.539551 -14.036499,10.728668 -13.703613,0.471252c0.195068,-4.995239 -19.483765,-5.383148 -19.279541,-1.884888c0.474731,11.07608 -12.888,12.754181 -14.365173,0.188477c0.489258,-7.559326 -2.82074,-13.550934 -9.639832,-18.094635c-10.291443,-5.679749 -11.279907,-13.15506 -14.176147,-20.262177c-3.691528,-10.260529 -12.594727,-9.77533 -19.679993,-8.571411c-20.178833,6.420471 -65.660583,18.291138 -94.092407,17.459625c-41.586365,-1.512207 -101.008972,-28.79776 -116.278992,-28.788391c-19.299927,0.222198 -18.987976,16.143707 -22.453827,23.190674c-9.014679,21.244141 -6.024933,45.908569 -5.613464,69.838409c-0.905212,19.325531 -2.576569,37.851379 -1.804352,56.777039c-0.430847,4.129395 -2.454132,6.803101 -7.155518,7.02887c-9.44046,-1.215454 -18.854034,-2.32373 -27.596252,-0.753906c1.681122,-12.799774 3.74527,-26.769928 6.048492,-35.05835c3.66452,-14.329193 -0.432098,-28.125305 0.569122,-43.387421c-0.255829,-17.411377 -14.273987,-31.077698 -14.234161,-45.381683c0.267853,-4.496674 0.829285,-9.318542 4.253937,-17.312958c2.071472,-4.818176 3.606232,-9.636322 3.551636,-14.454498c-0.073059,-12.952728 3.101563,-22.66684 7.2771,-31.382874c2.566925,-5.883148 6.532745,-9.673767 10.490326,-13.476746m-25.706085,75.582764c-3.78421,23.471802 -6.861847,48.453491 -15.437592,61.686493c-6.556549,12.921356 -4.573883,25.372437 -8.28656,37.584808c-2.076385,10.63504 -3.753448,22.166077 -4.410583,35.985413c0.044861,7.027649 1.878265,15.190308 -9.355774,15.060608c-10.839935,-1.499207 -22.586731,0.618713 -34.482758,3.33197c6.906311,-11.687134 13.422028,-23.583984 15.771179,-37.718048c2.702606,-26.207153 10.985687,-51.93042 6.415405,-78.768188c-2.219421,-10.235718 -6.246307,-20.705994 -4.276917,-29.987854c4.110321,-14.931793 -3.902161,-37.171112 -11.093292,-45.581573c-19.5056,-23.614288 -38.897079,-40.964447 -56.001022,-86.365112c-3.974106,-10.54892 -22.285172,-50.623428 -44.640411,-74.103409c-11.062195,-11.618729 -36.138741,-15.799866 -63.288162,-17.129654c-11.355766,-0.556229 -36.469234,-3.958206 -44.040562,-1.13092c-9.628799,3.338562 -19.607731,0.392166 -30.242439,-14.324905c-2.268156,-4.460892 -4.860365,-8.629776 -5.481453,-16.021286c-1.01059,-12.027023 1.851187,-16.756271 6.048489,-18.283096c4.548809,-2.645004 27.937016,-23.877701 31.943577,-32.608017c3.65353,-7.961021 5.681023,-17.773987 12.096989,-29.780716c3.514137,-5.379055 5.989433,-10.650242 17.956451,-15.267357c13.952797,-5.383255 27.273232,-3.851208 40.260254,0.376972c-15.114037,-7.445713 -33.462929,-11.457527 -64.076187,-2.450302c-0.40522,-5.662357 48.391571,-21.329058 61.718422,-20.440245m698.879082,131.458284c-0.44458,-22.42778 -3.459839,-41.627251 -17.389465,-47.121399c5.941772,-0.975929 11.659241,-0.832787 15.121216,10.555183c2.503174,26.506813 0.423584,52.090477 4.158325,79.540932l-0.377991,60.692337c2.796448,25.037933 -0.940552,48.928558 0.377991,75.771301c1.764221,25.508331 13.082031,47.186798 5.29248,76.525146c-7.342834,27.655975 0.624329,41.27594 10.206848,41.089874c8.517517,-0.165375 13.678406,-12.952637 9.828735,-42.974731c-1.597534,-12.458588 -7.654602,-13.6875 -8.31665,-29.780731c-0.193726,-22.136322 0.533081,-74.948578 0,-111.96051c-0.358154,-24.866913 -2.158447,-49.760178 -1.134033,-74.640274c1.51947,-32.270782 -1.161743,-62.441986 -10.5849,-93.111908c-5.90033,-18.867233 -12.501709,-14.224556 -43.09552,-21.487389c-26.571106,-4.900604 -57.225891,-1.507851 -90.349243,-2.261803c-73.596436,-1.528053 -107.658325,21.102699 -150.834229,18.848564c-37.838837,-1.906464 -75.678833,-3.814873 -117.945526,-13.570984c-27.360413,-6.342796 -57.077148,-6.40522 -88.459137,-11.309105c-39.677338,-6.047394 -75.602814,-8.328438 -119.07962,-9.04731c-19.816238,-0.327675 -36.089493,-12.477531 -66.911423,-20.356483c1.582672,9.998974 -3.308655,21.073914 -7.560593,32.042572c4.822083,-14.450577 12.794678,-29.256035 4.536362,-43.351681c-6.189743,-10.564905 -10.61673,-10.118593 -10.206818,-3.392752c0.561539,9.213919 1.420212,18.345945 -3.024261,27.518915c4.357208,-13.67905 7.710159,-26.934383 -13.609093,-29.780741c-13.621483,-3.354454 -47.046165,-1.02927 -68.847416,8.573309c8.177288,3.381474 25.669949,-2.573139 34.595692,-1.349987m-60.633947,133.386955c1.569197,4.05423 43.036551,2.721954 42.339415,-0.753937" id="path2440"/>
   <g display="inline" id="layer3">
    <path fill="#000000" fill-rule="evenodd" stroke="#000000" stroke-width="1.99875438px" stroke-linejoin="round" d="m257.453857,545.448364c-6.837448,5.950806 -1.348755,14.471863 -8.316666,25.162964c5.306519,11.57373 35.17012,2.529175 41.772385,-5.843018c0.488434,-7.445313 3.805817,-15.832886 4.536346,-23.278198m42.864502,-24.779846c-5.287964,3.633118 -1.310425,11.500916 -6.69928,18.028015c4.103973,7.065979 29.605591,2.876953 34.711639,-2.234497c0.377777,-4.545471 0.537567,-10.999084 1.10257,-15.544556m317.276245,36.114197c-6.837402,5.950745 -1.348755,14.471924 -8.31665,25.162842c5.306519,11.573669 35.170105,2.529297 41.7724,-5.843079c0.488464,-7.445068 7.81543,-14.5 8.545959,-21.945129m76.154114,-26.641174c-6.837463,5.950806 -1.348694,14.471802 -8.316589,25.162964c5.306458,11.57373 35.170105,2.529114 41.7724,-5.843262c0.488403,-7.445129 0.403442,-10.178162 1.134033,-17.623352m-816.262495,-384.168076c2.931578,-2.797119 6.708675,-3.76741 11.151892,-3.298508c3.03392,0.1297 4.062851,6.605286 0.756069,5.937286c-5.99608,-1.75647 -8.507473,-2.409332 -11.907961,-2.638779zm88.046721,-56.251534c1.183769,-1.560364 14.943665,0.02002 14.399551,1.21373c-7.156853,-4.251595 -18.33918,-3.416054 -25.139023,-1.036682c0.230965,5.09008 2.58239,8.157578 8.600197,7.727928c12.085823,-0.642891 11.186691,-2.233231 13.609093,-3.58123c-8.085312,0.203651 -9.697044,-2.106308 -11.469818,-4.323746z" id="path3239"/>
   </g>
  </g>
 </g>
</svg>