<?xml version="1.0" encoding="UTF-8"?>
<svg width="400" height="500" xmlns="http://www.w3.org/2000/svg">
 <title>Color this christmas tree with the colors of your choice</title>

 <metadata>Clipart by Nicu Buculei - baloon1_04holidayrecreationchristmasNicu BuculeiNicu BuculeiNicu Buculeiimage/svg+xmlen</metadata>
 <g>
  <title>Layer 1</title>
  <path d="m103.218994,412.756989c0.909012,52.710022 198.115021,52.710022 197.205994,0.908997c-0.908997,-55.435974 -195.388992,-56.343994 -197.205994,-0.908997z" id="path749" stroke-linejoin="bevel" stroke-width="3.75" stroke="black" fill-rule="evenodd" fill="#ffffff"/>
  <path d="m176.483627,305.521179l-0.562271,107.235016c4.91629,11.813995 47.487244,13.632996 54.527039,-0.90802l0,-107.235992c-6.183716,15.449005 -41.598572,20.902008 -53.964767,0.908997z" id="path748" stroke-linejoin="bevel" stroke-width="4.76806" stroke="black" fill-rule="evenodd" fill="#ffffff"/>
  <path d="m195.005768,163.75119c-3.634995,10.905411 -113.597,87.243195 -176.302895,125.411224c37.258896,100.875 322.617897,97.23999 353.515907,0.001984c-53.618042,-15.449982 -174.48703,-115.416595 -177.213028,-125.413208l0.000015,0z" id="path747" stroke-linejoin="bevel" stroke-width="3.75" stroke="black" fill-rule="evenodd" fill="#ffffff"/>
  <path d="m194.097,96.501472c-3.634995,10.905411 -79.972,87.243187 -142.677994,125.411201c39.077011,56.345016 250.824036,62.707016 285.356995,-1.81601c-53.618011,-15.449997 -139.953003,-113.598595 -142.679001,-123.595192z" id="path746" stroke-linejoin="bevel" stroke-width="3.75" stroke="black" fill-rule="evenodd" fill="#ffffff"/>
  <path d="m103.343002,412.756989l1.252991,19.084015c42.712006,49.983002 181.728012,37.38501 194.451004,0.125l1.15799,-19.209015c1.818024,53.618011 -194.134979,50.891998 -196.861984,0z" id="path750" stroke-linejoin="bevel" stroke-width="3.75" stroke="black" fill-rule="evenodd" fill="#ffffff"/>
  <path d="m194.097,24.7078c-3.634995,10.905401 -40.895004,82.699198 -103.600006,120.867197c37.259003,44.531006 178.121017,48.167007 212.654007,0.910004c-53.618011,-15.449997 -106.328003,-111.780602 -109.054001,-121.777201z" id="path745" stroke-linejoin="bevel" stroke-width="3.75" stroke="black" fill-rule="evenodd" fill="#ffffff"/>
  <path d="m121.502609,222.008698c20.765991,-0.669891 20.765991,29.473816 1.339996,29.473816c-24.785004,0.6698 -21.436005,-28.803909 -1.339996,-29.473816z" id="path772" stroke-width="3.75" stroke="black" fill-rule="evenodd" fill="#ffffff"/>
  <path d="m323.799896,296.363007c20.765991,-0.669922 20.765991,29.473785 1.339996,29.473785c-24.785004,0.6698 -21.436005,-28.803894 -1.339996,-29.473785z" id="path775" stroke-width="3.75" stroke="black" fill-rule="evenodd" fill="#ffffff"/>
  <path d="m144.277802,323.827179c20.765991,-0.669891 20.765991,29.473816 1.339996,29.473816c-24.785004,0.6698 -21.436005,-28.803925 -1.339996,-29.473816z" id="path778" stroke-width="3.75" stroke="black" fill-rule="evenodd" fill="#ffffff"/>
  <path d="m252.794891,136.266739c20.765991,-0.669907 20.765991,29.473801 1.339996,29.473801c-24.785004,0.6698 -21.436005,-28.803894 -1.339996,-29.473801z" id="path781" stroke-width="3.75" stroke="black" fill-rule="evenodd" fill="#ffffff"/>
  <path d="m134.229904,155.692596c20.765991,-0.669891 20.765991,29.473816 1.339996,29.473816c-24.785004,0.6698 -21.436005,-28.803909 -1.339996,-29.473816z" id="path792" stroke-width="3.75" stroke="#000000" fill-rule="evenodd" fill="#ffffff"/>
  <path d="m284.94809,177.128098c20.765991,-0.669907 20.765991,29.473801 1.339996,29.473801c-24.785004,0.6698 -21.436005,-28.803894 -1.339996,-29.473801z" id="path795" stroke-width="3.75" stroke="#000000" fill-rule="evenodd" fill="#ffffff"/>
  <path d="m226.67041,288.994507c20.765991,-0.669922 20.765991,29.473785 1.339966,29.473785c-24.784973,0.6698 -21.435974,-28.803894 -1.339966,-29.473785z" id="path798" stroke-width="3.75" stroke="#000000" fill-rule="evenodd" fill="#ffffff"/>
  <path d="m211.933502,112.821693c20.765991,-0.669914 20.765991,29.473793 1.339996,29.473793c-24.785004,0.6698 -21.436005,-28.803909 -1.339996,-29.473793z" id="path809" stroke-width="3.75" stroke="#000000" fill-rule="evenodd" fill="#ffffff"/>
  <path d="m69.923492,264.879608c20.765991,-0.669922 20.765991,29.473785 1.339996,29.473785c-24.785011,0.6698 -21.436012,-28.803894 -1.339996,-29.473785z" id="path812" stroke-width="3.75" stroke="#000000" fill-rule="evenodd" fill="#ffffff"/>
  <path d="m261.503113,238.085205c20.765991,-0.669907 20.765991,29.473785 1.339996,29.473785c-24.785004,0.6698 -21.436005,-28.803894 -1.339996,-29.473785z" id="path815" stroke-width="3.75" stroke="#000000" fill-rule="evenodd" fill="#ffffff"/>
  <path d="m177.770706,164.400696c20.765991,-0.669891 20.765991,29.473816 1.339996,29.473816c-24.785004,0.6698 -21.436005,-28.803909 -1.339996,-29.473816z" id="path823" stroke-width="3.75" stroke="#000000" fill-rule="evenodd" fill="#ffffff"/>
  <path d="m269.541412,331.865479c20.765991,-0.669891 20.765991,29.473816 1.339996,29.473816c-24.785004,0.6698 -21.436005,-28.803894 -1.339996,-29.473816z" id="path826" stroke-width="3.75" stroke="#000000" fill-rule="evenodd" fill="#ffffff"/>
  <path d="m77.291901,319.99057c20.765991,-0.669891 20.765991,29.473816 1.339996,29.473816c-24.785004,0.6698 -21.436005,-28.803894 -1.339996,-29.473816z" id="path837" stroke-width="3.75" stroke="#000000" fill-rule="evenodd" fill="#ffffff"/>
  <path d="m167.053009,247.463287c20.765991,-0.669891 20.765991,29.473816 1.339996,29.473816c-24.785004,0.6698 -21.436005,-28.803909 -1.339996,-29.473816z" id="path840" stroke-width="3.75" stroke="#000000" fill-rule="evenodd" fill="#ffffff"/>
  <path d="m289.637115,266.889191c20.765991,-0.669891 20.765991,29.473816 1.339996,29.473816c-24.785004,0.6698 -21.436005,-28.803925 -1.339996,-29.473816z" id="path852" stroke-width="3.75" stroke="#000000" fill-rule="evenodd" fill="#ffffff"/>
  <path d="m224.660797,198.563599c20.765991,-0.669891 20.765991,29.473816 1.339996,29.473816c-24.785004,0.6698 -21.436005,-28.803909 -1.339996,-29.473816z" id="path855" stroke-width="3.75" stroke="#000000" fill-rule="evenodd" fill="#ffffff"/>
  <path d="m138.9189,280.286316c20.765991,-0.669922 20.765991,29.473785 1.339996,29.473785c-24.785004,0.6698 -21.436005,-28.803894 -1.339996,-29.473785z" id="path858" stroke-width="3.75" stroke="#000000" fill-rule="evenodd" fill="#ffffff"/>
  <path d="m167.722809,117.510674c20.765991,-0.669907 20.765991,29.473793 1.339996,29.473793c-24.785004,0.6698 -21.436005,-28.803894 -1.339996,-29.473793z" id="path866" stroke-width="3.75" stroke="#000000" fill-rule="evenodd" fill="#ffffff"/>
  <path d="m212.603394,339.903778c20.765991,-0.669891 20.765991,29.473816 1.340027,29.473816c-24.785019,0.6698 -21.43602,-28.803925 -1.340027,-29.473816z" id="path869" stroke-width="3.75" stroke="#000000" fill-rule="evenodd" fill="#ffffff"/>
  <path d="m217.962219,240.764709c20.765991,-0.669907 20.765991,29.473785 1.339966,29.473785c-24.784988,0.6698 -21.435989,-28.803894 -1.339966,-29.473785z" id="path872" stroke-width="3.75" stroke="#000000" fill-rule="evenodd" fill="#ffffff"/>
  <polygon id="polygon878" points="228.09130859375,99.6544418334961 206.92953491210938,81.65499877929688 186.09030151367188,100.02771759033203 196.66929626464844,74.33943939208984 172.75674438476562,60.19804763793945 200.45704650878906,62.32126235961914 206.51614379882812,35.208778381347656 213.05645751953125,62.20939636230469 240.71517944335938,59.59421157836914 217.05740356445312,74.15818786621094 228.09130859375,99.6544418334961 " stroke="#000000" stroke-width="3.75" fill-rule="evenodd" fill="#ffffff"/>
  <path d="m154.553009,77.463287c20.765991,-0.669899 20.765991,29.473801 1.339996,29.473801c-24.785004,0.6698 -21.436005,-28.803902 -1.339996,-29.473801z" id="path884" stroke-width="3.75" stroke="#000000" fill-rule="evenodd" fill="#ffffff"/>
 </g>
</svg>