<?xml version="1.0" encoding="UTF-8" standalone="no"?>
<svg xmlns="http://www.w3.org/2000/svg" width="383" height="497" version="1.0">
  <path fill="#fff" fill-rule="evenodd" d="M311.777196 109.564523c-2.28621-5.486897-27.75052-30.363197-42.98071-39.133247-16.60287-9.80918-73.15785-37.94983-73.15867-37.95106 4.11517-5.02966 25.60553-11.43104 25.60553-11.43104s43.8952-5.4868904 53.95452-.45724l-3.2007 11.88828 14.1745-9.14483.45724 7.31587 7.31587-.91449 10.9738 15.54622s-7.31587 5.94414-6.40139 6.85862c.91449.91449 8.23035-.45724 8.23035-.45724 4.11517 1.82897 19.66139 44.62015 19.66139 44.62015l-14.63173 13.260007z"/>
  <path fill="#fff" fill-rule="evenodd" stroke="#000" stroke-linecap="round" stroke-linejoin="round" stroke-width="2.5" d="M831 593.86218c0 10.76955-62.00856 19.5-138.5 19.5s-138.5-8.73045-138.5-19.5 62.00856-19.5 138.5-19.5 138.5 8.73045 138.5 19.5z" color="#000" style="marker:none" transform="translate(-507.3162 -129.6621)"/>
  <path fill="#fff" fill-rule="evenodd" stroke="#000" stroke-width="3" d="m127.243046 403.761343-6.87664 20.99186c-8.68629-2.89543-36.597684 10.64587-40.174084 45.24108 19.182224 5.79086 71.299954 4.34314 94.825314-17.01065l-11.21979-18.09643c0-4.04649 6.15279-22.07765 6.15279-22.07765l-42.70759-9.04821zm109.30246 19.90607 5.79086 35.83094c.72386 3.98121 15.92487 2.90834 15.92487-2.17157l-4.34315-36.19287-17.37258 2.5335z"/>
  <path fill="#fff" fill-rule="evenodd" stroke="#000" stroke-width="3" d="m237.111896 424.934383 3.42408 22.8201s3.24665 3.21743 8.4252 1.99342c5.17854-1.22402 7.1405-4.09219 7.1405-4.09219l-3.20027-24.67585"/>
  <path fill="#fff" fill-rule="evenodd" stroke="#000" stroke-width="3" d="M216.277506 410.999913s-2.5335 15.201 26.78272 12.30557c29.31622-2.89543 24.97308-17.37257 24.97308-17.37257l-51.7558 5.067z"/>
  <path fill="#fff" fill-rule="evenodd" stroke="#000" stroke-linejoin="round" stroke-width="3" d="M121.683836 400.467893c1.77382 3.54764 28.73422 23.32698 66.13821 7.38504 5.74048-2.44664 6.84189-24.83351 6.84189-24.83351l-7.85549-.5068s15.01885 1.23979 21.01885-.76021c-7.79059 1.90611-7.33508 1.01361-7.33508 1.01361l2.28063 20.77906c14.44398 14.69738 61.83036 15.20419 74.75392-7.09529l-14.44397-49.92042-140.63875 2.53403-.76021 51.40449z"/>
  <path fill="#fff" fill-rule="evenodd" stroke="#000" stroke-width="3" d="M122.178896 178.965943s-8.83846-19.4446-25.872574-17.51621c-17.03411 1.92839-26.03327 12.85593-22.01579 27.80095 4.01748 14.94503 9.80265 42.74599 36.800114 51.58444 25.48419 8.34304 47.88836-37.60361 47.88836-37.60361l-36.80011-24.26557z"/>
  <path fill="#fff" fill-rule="evenodd" stroke="#000" stroke-width="3" d="M160.087436 192.979083s-8.84437-6.94342-19.00723-6.16613c-8.63358.66033-17.68989 8.42441-17.87808 16.5166-.18819 8.09218-.37638 25.40569 5.08114 25.78207 5.45752.37638 8.65676-.56457 8.65676-.56457h.18819l22.77103-25.2175.18819-10.35047z"/>
  <path fill="#fff" fill-rule="evenodd" d="m243.648196 54.427816 3.65793-34.29312s22.86208-1.3717304 25.14829.45724c2.28621 1.82897-6.40138 47.55313-6.40138 47.55313l-22.40484-13.71725z"/>
  <path fill="#fff" fill-rule="evenodd" stroke="#000" stroke-width="3.5" d="M362.65695 124.05083s.91449-17.37519-2.28621-21.49036c-3.20069-4.115177-10.05932-10.516557-12.80277-10.059317-2.74345.45724-10.97379 4.11518-10.97379 5.94415 0 1.828957 20.11863 42.066227 21.03311 45.266917.91449 3.20069-6.58077 7.87158-7.77311 5.4869-13.26-26.52001-35.2076-41.15175-35.66485-45.72417-.45724-4.572407 25.1483-25.148287 37.49382-22.862077 12.34553 2.28621 19.66139 21.490357 18.28967 30.177947-1.37173 8.68759-1.37173 20.57587-7.31587 13.26001z" color="#000" style="marker:none" transform="translate(-1.954894 9.022553)"/>
  <path fill="#fff" fill-rule="evenodd" d="m273.368896 70.888516 8.23035-45.26692 11.88829 5.94414s-5.94414 42.98071-8.68759 48.01037-11.43105-9.14483-11.43105-8.68759z"/>
  <path fill="#fff" fill-rule="evenodd" stroke="#000" stroke-width="3" d="M327.323416 115.698193c2.74345-5.02965 11.1-10.814527 16.05893-8.040947 3.45763 1.933877 5.43143 7.126467-1.4272 14.442337-6.85862 7.31586-10.05932 5.02966-10.05932 5.02966l-4.57241-11.43105z"/>
  <path fill="#fff" fill-rule="evenodd" stroke="#000" stroke-linecap="round" stroke-linejoin="round" stroke-width="3" d="M338.754456 147.247873c-1.82897-21.03312-25.60553-13.71725-18.28967-13.71725 7.31587 0 15.619-7.46835 9.60207-13.71725-12.02975-12.493537-26.52 7.31587-18.28965 16.4607 5.44601 6.05112 3.20068 8.68759 3.20068 8.68759l26.06278 14.17449 7.31586-12.80277"/>
  <path fill="#fff" fill-rule="evenodd" stroke="#000" stroke-width="3" d="M342.029536 140.765283s-1.76943 5.6653 0 7.11301c3.55651 2.90987 9.3268 1.26659 13.9027-3.23318 3.6471-3.58644 1.83369-13.41033-5.46392-13.65783-5.10917-.17328-8.43878 10.42464-8.43878 9.778z"/>
  <path fill="#fff" fill-rule="evenodd" stroke="#000" stroke-width="3" d="M336.533126 128.155853s9.2784-10.94774 12.2861-10.3462c8.08297 1.6166 6.46638 11.96279 2.90987 14.87266-5.48808 4.49025-9.69956 7.75966-13.57938 5.17311-4.45303-2.96869-1.29328-9.69957-1.61659-9.69957z"/>
  <path fill="#fff" fill-rule="evenodd" d="M228.994586 393.733933s51.6188-12.72792 67.88225-24.04163c0 0-12.72792-13.43504-16.26345-19.09189 0 0 2.12132-17.67767-.70711-23.33452 0 0 10.6066-29.69848-12.02081-63.63961 0 0 71.41778-37.23517 89.09545-83.4386 3.28483-8.58544-36.83204-36.02102-46.66905-34.64824-7.77818 21.2132-44.04705 92.78517-111.72287 84.14571-89.1208-11.37712-166.820774 47.23745-148.066484 93.45327 2.43619-7.10326 13.71619-30.87432 46.95021-37.94538 1.908324-.40603 3.572554 3.11216 5.022674 2.77063 0 0 2.38979-12.09059 14.06921-15.145 0 0-25.840744 37.64037-.23785 61.46468 5.09379 4.73993 1.02054 13.02973-1.60982 18.95415 0 0-7.53576 14.77459-21.133304 23.17231 0 0 21.505864 28.76612 71.771344 19.44544 0 0 31.32362-48.65293 33.23402-56.56854 2.47488 8.13172 22.98097 47.0226 30.40559 54.44722z"/>
  <path fill="#fff" fill-rule="evenodd" stroke="#000" stroke-width="3" d="M157.197836 318.575573s29.98562-1.76386 36.15913-1.17591c3.524.33561.29397-7.34942.29397-7.34942s-32.04346.29398-34.39527 1.17591c-2.35181.88193-2.64579 6.17351-2.05783 7.34942z"/>
  <path fill="#fff" fill-rule="evenodd" stroke="#000" stroke-width="3" d="M160.9166 306.02528c0 3.73233-3.32782 7.05544-7.79039 7.05544s-7.20243-3.91106-7.20243-7.64339 3.91577-6.76146 8.37834-6.76146c4.46257 0 6.61448 3.61708 6.61448 7.34941z" color="#000" style="marker:none" transform="translate(-1.954894 9.022553)"/>
  <path fill="#de9e54" fill-rule="evenodd" stroke="#000" stroke-width="3" d="m213.162376 368.322043 12.18377-8.58848c2.02722 15.71099 18.98141 29.61753 18.98141 29.61753l-14.72461 4.31807"/>
  <path fill="#fff" fill-rule="evenodd" stroke="#000" d="m302.177906 164.606683 8.59425-18.53315c12.75802-1.10939 42.25296 19.45764 46.87544 33.14016l-10.72414 20.52378-44.74555-35.13079z"/>
  <path fill="#fff" fill-rule="evenodd" stroke="#000" stroke-width="3" d="M296.737536 173.059833c14.79193.1849 43.68836 30.29291 44.95876 32.67491l5.1565-7.27556c-3.37268-6.86653-34.13565-34.4072-44.85979-34.777 0 0-4.70077 9.19275-5.25547 9.37765zm-131.47857 222.89336-13.92016 1.4932c1.52042-3.04084 26.85393-39.26047 26.85393-39.26047l8.61571 3.54764"/>
  <path fill="#fff" fill-rule="evenodd" stroke="#000" stroke-linejoin="round" stroke-width="3.4000001" d="M228.994586 393.733933s51.6188-12.72792 67.88225-24.04163c0 0-12.72792-13.43504-16.26345-19.09189 0 0 2.12132-17.67767-.70711-23.33452 0 0 10.6066-29.69848-12.02081-63.63961 0 0 71.13925-36.53883 88.81692-82.74226 3.0793-5.33351-29.03309-37.4137-46.39052-35.34458-7.77818 21.2132-44.04705 92.78517-111.72287 84.14571-89.1208-11.37712-166.820774 47.23745-148.066484 93.45327 2.43619-7.10326 14.07855-30.33078 47.31257-37.40184 1.908324-.40603 2.931874 3.08787 4.381994 2.74634 0 0 .20254-11.58252 14.34753-15.66425 0 0 3.43715-1.03465 2.31345-.19481-8.04851 6.01538-24.764584 40.98932-2.5513 61.65949 5.09379 4.73993 1.02054 13.02973-1.60982 18.95415 0 0-7.53576 14.77459-21.133304 23.17231 0 0 21.505864 28.76612 71.771344 19.44544 0 0 31.32362-48.65293 33.23402-56.56854 2.47488 8.13172 22.98097 47.0226 30.40559 54.44722z"/>
  <path fill="#fff" fill-rule="evenodd" stroke="#000" stroke-width="3" d="M235.93235 183.70837s7.68313-6.6905 17.92957-8.59525c15.60277-2.90047 24.67475 9.77507 22.60888 17.67247-2.09443 8.0066-2.2498 24.65846-7.83017 25.04329-5.58037.38482-8.85163-.57724-8.85163-.57724h-.19242l-23.28361-25.78338-.38062-7.75989z" color="#000" style="marker:none" transform="translate(-1.954894 9.022553)"/>
  <path fill="#fff" fill-rule="evenodd" stroke="#000" stroke-width="3.125" d="M251.52493 196.00072s-.18685-1.50606-.94095-3.38743c-.75347-1.87979-4.29344-1.10975-3.57562-4.32838.83427-3.74079 6.77362-4.87211 9.7859-4.70476 6.77485.37638 9.5977 5.8339 9.22132 9.40952-.49252 4.67891-2.44648 2.25828-2.0701 6.02209.18443 1.84427 8.28038 6.58666 8.09219 8.46857-.18819 1.8819.37639 7.52761-8.09218 5.45752-8.46856-2.0701-12.60875-16.74894-12.42056-16.93713z" color="#000" style="marker:none" transform="translate(-1.954894 9.022553)"/>
  <path fill="#fff" fill-rule="evenodd" stroke="#000" stroke-width="3" d="M208.349776 317.105693s28.22176-2.05783 31.74948-1.76386c3.52772.29398.29397-6.76147.29397-6.76147s-30.2796.29398-32.63141 1.17591c-2.35181.88193.29398 8.23135.58796 7.34942z"/>
  <path fill="#fff" fill-rule="evenodd" stroke="#000" stroke-width="3.125" d="M147.478676 207.281553s-1.31733-2.63467-.56457-4.51657c.75276-1.88191 4.02267-2.65194 3.57562-4.32838-.75276-2.82285-5.26462-3.65939-8.28038-3.57562-6.96304.18819-9.5977 5.64571-9.5977 10.35047 0 4.70476 5.45752 6.39847 4.70476 8.09219-.75277 1.69371-10.53866 3.57561-10.35047 5.45752.18819 1.8819-1.50553 8.84494 6.96304 6.77485 8.46856-2.0701 13.73789-18.06627 13.5497-18.25446z"/>
  <path fill="#fff" fill-rule="evenodd" stroke="#000" stroke-width="3" d="M138.069156 224.218683s-10.53865 2.82285-10.91503-2.25829c-.37638-5.08114 5.22058-6.08839 8.84495-6.39847 2.01949-1.30192 1.32018-6.02209-2.82286-6.39847-9.63525-1.12914-16.37256 8.84495-13.17333 17.68989 3.19924 8.84495 17.31352 4.89295 17.31352 4.89295l.75275-7.52761zm10.30937 73.19056s36.15913-2.64579 39.68685-2.35181c3.52772.29398-2.05783-9.40726-2.05783-9.40726l-38.21697 3.52773.58795 8.23134z"/>
  <path fill="#fff" fill-rule="evenodd" stroke="#000" stroke-width="3" d="M154.15514 285.15293c0 3.73233-3.6218 7.05544-8.08437 7.05544-4.46257 0-9.55424-2.1472-9.84822-7.34941-.21057-3.72638 5.09168-7.64339 9.55425-7.64339 4.46257 0 8.37834 4.20503 8.37834 7.93736zm-53.3133-8.27534c-28.991384 2.47487-47.022614 29.34493-48.436824 38.53732 0 0 3.77338 15.96133 20.85965 21.92032-1.76776-5.65686 8.83216-33.84165 40.305094-38.89088 0 0-1.06066-11.31371-12.72792-21.56676z" color="#000" style="marker:none" transform="translate(-1.954894 9.022553)"/>
  <path fill="#fff" fill-rule="evenodd" stroke="#000" stroke-width="3" d="M118.06386 341.56127c23.31309 23.05969 155.58137 12.37592 164.45259-.80725l-1.26096-24.78646c-44.59895 24.0733-152.29529 10.38952-156.85655 10.13612l-6.33508 15.45759z" color="#000" style="marker:none" transform="translate(-1.954894 9.022553)"/>
  <path fill="#fff" fill-rule="evenodd" stroke="#000" stroke-width="3" d="M74.678876 338.04233s19.18346 17.4557 37.830224 5.3033c22.21076-14.47511 9.26283-42.78908 1.06065-45.25483-12.97084-2.66689-44.901274 23.68807-38.890874 39.95153z" color="#000" style="marker:none" transform="translate(-1.954894 9.022553)"/>
  <path fill="#fff" fill-rule="evenodd" stroke="#000" stroke-linejoin="round" stroke-width="3" d="M112.15554 336.98167c-2.47487-1.76777-.35355-6.36396 3.88909-7.42462l8.13173 4.59619s11.64755-20.62006 28.99138-10.60659c16.92038 9.76898 7.42461 47.37615-20.15255 37.1231 0 0 18.11477-5.40787 18.38478-17.67768.28138-12.78637-20.5061-13.78857-26.16296 2.82843l-13.08147-8.83883z" color="#000" style="marker:none" transform="translate(-1.954894 9.022553)"/>
  <path fill="#fff" fill-rule="evenodd" stroke="#000" stroke-width="3" d="M205.116026 295.645383s32.92539-3.52772 36.45311-3.23374c3.52772.29398.00001-6.76147.00001-6.76147l-35.86516-2.64578-.58796 12.64099z"/>
  <path fill="#fff" fill-rule="evenodd" stroke="#000" stroke-width="3" d="M192.890116 332.592203s-.7602-50.68064-2.53402-59.04294l19.25863-.5068-1.26702 59.54974h-15.45759z"/>
  <path fill="#fff" fill-rule="evenodd" stroke="#000" stroke-width="3" d="M261.27478 303.99756c0 4.49403-4.59319 7.90738-9.96417 7.90738-5.37098 0-9.84448-3.82731-9.84448-8.32134 0-3.90608 5.5948-8.14135 10.96578-8.14135s8.84287 4.06128 8.84287 8.55531z" color="#000" style="marker:none" transform="translate(-1.954894 9.022553)"/>
  <path fill="#fff" fill-rule="evenodd" stroke="#000" stroke-width="3" d="M170.0047 327.59687c.5-1.5 45.97035-6.78341 59.30314-2.7602 5.32061 1.60551-1.77382 31.67539-1.77382 31.67539s-37.25026 14.44398-58.78954-3.54765l1.26022-25.36754z" color="#000" style="marker:none" transform="translate(-1.954894 9.022553)"/>
  <path fill="#fff" fill-rule="evenodd" stroke="#000" stroke-width="3" d="m177.867 333.70577.76021 18.24504c7.6021 6.58848 35.47644 3.54764 38.77068.5068l.50681-19.51204c-2.78743-2.28063-37.25027-2.53404-40.0377.7602z" color="#000" style="marker:none" transform="translate(-1.954894 9.022553)"/>
  <path fill="#fff" fill-rule="evenodd" stroke="#000" stroke-width="3" d="M260.2257 211.24413s9.97408-.75276 10.35046-5.8339c.37638-5.08114-2.77411-3.83011-6.39848-4.14019-2.01949-1.30192-.9438-6.77485 3.19924-7.15123 9.63525-1.12914 14.67885 6.58667 10.35048 17.12532-3.57342 8.70051-16.37257 7.15123-16.37257 7.15123l-1.12913-7.15123z" color="#000" style="marker:none" transform="translate(-1.954894 9.022553)"/>
  <path fill="#fff" fill-rule="evenodd" stroke="#000" stroke-linejoin="round" stroke-width="3" d="M159.694306 200.062353c-4.81466 1.52042-19.37024 10.16576-22.55288 26.60733-4.79325 24.76207 9.44503 53.05725 23.81989 57.52252-1.77382-4.05445-.2534-9.37592-.2534-9.37592s15.2042 20.77906 17.99163 20.77906l2.02722-12.92356c5.32147 7.60209 10.64294 21.03246 10.64294 24.0733 0 3.04084 11.52051-18.04351 13.38952-18.97801 2.08168-1.04084 5.61571 8.84188 6.12251 10.61571.50681 1.77382 10.38953-14.19058 11.14974-17.48482.97034-4.20479 6.58849 7.8555 6.58849 7.8555s9.62932-11.14974 8.3623-21.53927c-.77664-6.36848 6.33508 6.33508 6.33508 6.33508s6.84189-8.86911 8.1089-23.5665l4.56125 7.6021c3.04084-5.06806 8.39578-26.57729 1.01362-41.81152-4.81418-9.9348-23.3131-15.9644-23.3131-15.9644s1.56167-16.9839-1.50554-17.57429c-17.81718-3.42951-68.68417 3.85996-71.98136 2.62351l-.50681 15.20418z"/>
  <path fill="#fff" fill-rule="evenodd" stroke="#000" stroke-width="3" d="M258.27838 279.5857c0 4.19908-3.74398 7.93777-8.76462 7.93777s-8.10314-4.40016-8.10314-8.59924 4.40546-7.60703 9.4261-7.60703c5.02065 0 7.44166 4.06942 7.44166 8.2685z" color="#000" style="marker:none" transform="translate(-1.954894 9.022553)"/>
  <path fill="#fff" fill-rule="evenodd" stroke="#151342" stroke-linejoin="round" stroke-width="3" d="M133.766926 128.217263c-11.58874-2.31775-10.23466-19.07704-11.29902-27.502917-1.36364-10.79514-15.91772-10.10739-23.34027-7.2633 2.53405-4.23959 11.46181-16.22423 28.5552-14.77564 17.09339 1.4486 25.78494 15.6448 24.91578 27.52326"/>
  <path fill="#fff" fill-rule="evenodd" stroke="#171640" stroke-linecap="round" stroke-width="2.5" d="M141.879036 117.497683c.57944-7.24297 0-20.859727-10.14014-23.467197"/>
  <path fill="#fff" fill-rule="evenodd" stroke="#000" stroke-width="3" d="M123.684486 187.755943c-9.40725-46.74229 27.49218-100.468347 81.59668-100.468347 28.392 0 62.04271 23.103217 62.04271 57.547747 0 27.85807-1.69632 40.95414-1.69632 40.95414-48.21218-5.0413-97.50476-5.6701-141.94307 1.96646z"/>
  <path fill="#fff" fill-rule="evenodd" stroke="#000" stroke-width="3" d="M123.684486 187.755943c-9.40725-46.74229 27.49218-100.468347 81.59668-100.468347 28.392 0 77.52021 14.71445 62.94848 96.420207-1.05642 3.38536-9.02417-.97118-9.02417-.97118 6.7216-38.23387.36439-81.548287-55.42323-81.280927-28.09814.13466-71.65981 27.169957-68.39432 84.418437 0 0-7.86646 1.22244-11.70344 1.88181z"/>
  <path fill="#fff" fill-rule="evenodd" stroke="#000" stroke-linecap="round" stroke-width="3.5" d="M311.777196 111.125783c-2.28621-5.486897-27.75052-31.924457-42.98071-40.694507-16.60287-9.80918-73.15785-37.94983-73.15867-37.95106 4.11517-5.02966 25.60553-11.43104 25.60553-11.43104s43.8952-5.4868904 53.95452-.45724l-3.2007 11.88828 14.1745-9.14483.45724 7.31587 7.31587-.91449 10.9738 15.54622s-7.31587 5.94414-6.40139 6.85862c.91449.91449 8.23035-.45724 8.23035-.45724 4.11517 1.82897 18.62055 39.41596 19.66139 46.18141"/>
  <path fill-rule="evenodd" stroke="#000" d="M214.908446 211.238633c3.11217.4446 16.45002-4.22365 16.00542-15.33852-.44459-11.11488-10.44798-9.78109-10.44798-9.78109l-20.22908 10.89257 14.67164 14.22704z"/>
  <path fill="#fff" fill-rule="evenodd" stroke="#000" stroke-width="2.5" d="M234.512916 131.928863s-2.1903-9.85636 4.38061-9.30878c6.57091.54757 4.56313 7.82869 3.28545 8.55879-1.27768.7301 10.76899.01989 7.48354 6.5908-3.28546 6.57091-14.60202 6.57091-15.8797 2.9204-.55189-1.57684-58.5906 23.36323-58.5906 23.36323s1.46019 6.57091-1.82526 8.39617c-3.28545 1.82525-10.40394 0-8.21363-4.19808 3.00647-5.76239-1.03301-.74683-3.83304-5.11071-2.35123-3.66445 2.36291-12.43526 11.86415-5.47576l61.32848-25.73606z"/>
  <path fill="#fff" fill-rule="evenodd" d="M323.74901 330.44827c0 2.68123-2.43309 4.85479-5.43446 4.85479-3.00138 0-5.43447-2.17356-5.43447-4.85479 0-2.68123 2.43309-4.85479 5.43447-4.85479 3.00137 0 5.43446 2.17356 5.43446 4.85479z" color="#000" style="marker:none" transform="translate(-120.3162 -134.6621)"/>
  <path fill="#fff" fill-rule="evenodd" stroke="#000" stroke-width="3" d="m203.0809 186.65526-3.77906-7.55811s20.67367-17.56151 32.67773-19.78448c0 0 4.66825 13.33784 4.22365 15.33852-7.38369-.34031-33.12232 12.00407-33.12232 12.00407z" color="#000" style="marker:none" transform="translate(-1.954894 9.022553)"/>
  <path fill="#fff" fill-rule="evenodd" stroke="#000" stroke-width="3" d="M152.085376 226.715543c-.60489 7.4603 7.59782 35.80008 51.21391 31.45421 37.15256-3.70185 44.3585-29.63954 37.90636-34.27702-1.00815-1.74616-70.16709-2.82282-89.12027 2.82281z"/>
  <path fill="none" stroke="#000" stroke-width="3" d="m202.291136 257.766493-.40326-31.25258"/>
  <path fill="#fff" fill-rule="evenodd" stroke="#000" stroke-width="3" d="m225.276906 251.314353-3.83096-23.1874"/>
  <path fill="#fff" fill-rule="evenodd" stroke="#000" stroke-linejoin="bevel" stroke-width="3" d="m169.627146 253.129013 1.61304-29.63954h18.14666l-5.444 34.68028-14.3157-5.04074z"/>
  <path fill="#fff" fill-rule="evenodd" stroke="#000" stroke-width="3" d="M187.737536 214.530173s-15.79762-7.89881-27.90913-1.05317c-12.11152 6.84564-11.05834 14.39339-11.05834 14.39339l11.23386-.87764s-5.26587 11.76045-3.33505 12.98915l10.18069-7.19669s2.45741 8.60092 3.86164 6.84563c.70212-4.03716 19.48374-20.71243 31.77078-18.95714 12.28704 1.75529 27.20703 17.55291 27.20703 17.55291l1.2287-7.89881s7.37223.52659 8.95199 4.2127c1.57976 3.68611-.17553-12.28704-.17553-12.28704l11.23387.17553s-5.61694-16.49974-24.22303-15.97316c-18.60609.52659-38.96748 8.07434-38.96748 8.07434z"/>
  <path fill="#fff" fill-rule="evenodd" stroke="#000" stroke-linecap="round" stroke-width="3" d="M185.850776 208.256483c1.07965-.40487 9.32705-8.83117 13.58074-9.11567 7.72273-.51653 14.8225 3.47685 16.36612 18.76675 1.32773 13.15146-9.3365 14.00474-9.3365 14.00474-4.66824 1.77838-26.1479-12.01651-14.67162-18.67299 6.36373-3.6911 10.44798 3.55676 10.44798 3.55676"/>
  <path fill="#fff" fill-rule="evenodd" d="M194.232116 193.993263s4.2127 5.61694 1.2287 11.76046c-2.98399 6.14352-18.0795 11.93598-25.45173 2.28187-5.59262-7.32367-2.28187-20.88797 9.47858-21.0635 11.76046-.17553 15.27104 7.54776 14.74445 7.02117z"/>
  <path fill="#f8f9f8" fill-rule="evenodd" stroke="#000" stroke-width="3.125" d="M168.685396 205.047253c3.62933-1.61304 22.09358-1.24619 26.12617.77011l1.12318-5.54989c-1.41141-2.21793-19.65382-5.00614-26.91248-3.79636-3.66729.61121-.33687 8.57614-.33687 8.57614z"/>
  <path fill="#000103" fill-rule="evenodd" d="M174.062996 196.789893c-.04892 1.99184.31616 4.08686 3.31972 4.49492 3.23831.43995 4.45822-1.70669 4.46031-4.03259 0 0-4.75559-.52954-7.78003-.46233z"/>
  <path fill="#fff" fill-rule="evenodd" stroke="#000" stroke-width="3" d="M84.232012 459.622503c6.55382 4.13926 44.841934 8.79592 84.337324-13.10763l3.10445 6.03641c-4.21513 6.86082-48.04297 24.83553-89.435523 15.17727l1.993749-8.10605z"/>
  <path fill="#fff" fill-rule="evenodd" stroke="#000" stroke-width="2.5" d="M103.345186 319.202803s6.41477 3.63503 7.91154 10.26362l4.91799-.85531c.8553-4.06268-2.86307-13.25717-7.05624-13.25717-4.06269 1.28294-5.77329 3.84886-5.77329 3.84886z"/>
  <path fill="none" stroke="#000" stroke-width="3" d="M194.232116 193.993263s4.2127 5.61694 1.2287 11.76046c-2.98399 6.14352-18.0795 11.93598-25.45173 2.28187-5.59262-7.32367-2.28187-20.88797 9.47858-21.0635 11.76046-.17553 15.27104 7.54776 14.74445 7.02117z"/>
  <path fill="#fff" fill-rule="evenodd" stroke="#000" stroke-width="3" d="M162.489406 184.160693s1.34774-8.51507 6.76147-11.98551c4.70362.29397 23.46158 12.95799 26.16393 17.6386-.79296 2.62126-1.72657 2.70173-3.82171 7.34941-2.93976-4.40965-15.58076-10.35671-29.10369-13.0025z"/>
  <path fill="#fff" fill-rule="evenodd" stroke="#000" stroke-linecap="round" stroke-width="3" d="M195.754146 264.251333s4.02486.94703 8.52324.94703c4.49838 0 9.94378-2.13081 9.94378-2.13081"/>
  <path fill="#fff" fill-rule="evenodd" stroke="#000" stroke-width="3" d="M186.92262 340.22447c-.63699.30062-.73135 3.89269.13236 4.28957.28273.12992 7.63213 1.02347 7.63213-.39707 0-1.42054 1.15582-3.65575-.26472-4.12926-1.42054-.47351-6.05656-.44433-7.49977.23676zm17.03695.30077c-1.31932 1.05545-1.84704 2.9025 0 3.43024 1.84706.52771 3.95797 0 3.95797-2.11092 0-2.11091-2.37479-1.58318-3.95797-1.31932z" color="#000" style="marker:none" transform="translate(-1.954894 9.022553)"/>
  <path fill="#fff1ea" fill-rule="evenodd" stroke="#000" stroke-width="3" d="M101.472886 451.505993c.06142-.79836 3.10494-10.21114 8.5503-10.80584l-.9984-5.50949c-2.5179.36847-11.482734 6.92332-11.655224 16.15186l4.103324.16347z"/>
  <path fill="#fff" fill-rule="evenodd" stroke="#000" stroke-width="2.5" d="M167.891196 137.587153c-11.13404 6.57091-13.50686-11.31657-2.55534-8.03111-1.8463-5.90155 4.47972-7.70868 8.0311-5.65829 3.95179 2.28157 1.27768 8.57869 1.27768 8.57869 2.9204.7301 60.59838 24.27586 60.59838 24.27586s4.38941-3.68032 8.03112-.91263c4.56312 3.46798-1.82526 7.66606-1.82526 7.66606 8.21364 8.21364-10.22141 12.22919-7.84859.54757l-65.70909-26.46615z"/>
  <path fill="#fff" fill-rule="evenodd" stroke="#000" stroke-width="3" d="M186.083766 160.605703c-.77439-3.09756 2.1653-9.83308 0-10.32519-8.00202-4.64633-11.648-36.1879 18.32721-35.62189 28.89807.54567 21.16663 36.39629 9.29266 36.39628-2.2919.78096 1.80691 10.96309-1.03251 11.22122-.68018.06183-4.0941.38123-6.50003.55638-.33131.02412-.25264-6.97862-.65377-9.17417l-.2808.00279c-.55957 2.74741-.5811 9.04834-.89627 9.06688-2.80382.16493-4.95089.53733-7.93211.45606-.51098-.01392-1.0306-9.48542-1.0306-9.48542s-1.29972 9.11641-1.81771 9.0793c-3.87475-.27756-6.9351-.90998-7.47607-2.17224z"/>
  <path fill="#fff" fill-rule="evenodd" stroke="#000" stroke-width="3" d="M199.833116 127.913313s-4.74565.54757-4.92818 6.5709c-.13125 4.2.54758 8.21364 2.37283 8.39617 1.85216.18522 4.92818-5.11071 5.1107-10.03889.18253-4.92818-1.82525-4.92818-2.55535-4.92818zm8.58646-1.64272s-3.8408-.73012-4.02333 5.29321c-.13125 4.2 1.43158 8.91539 4.38061 8.5787 1.82353-.20819 3.10293-2.19031 3.28545-7.11849.18253-4.92818-2.91263-6.75342-3.64273-6.75342z"/>
  <path fill="#fff" fill-rule="evenodd" stroke="#000" stroke-width="2.5" d="M195.686906 192.005993s10.79673-1.15679 8.86874-11.18232h-16.9027c5 3.5 8.03396 11.18232 8.03396 11.18232zm-101.003074-31.30594s-15.5-16.75-.75-34c14.750004 14.25.75 34 .75 34zm-25.5 33.25s-4.25-3.75-4.75-8.5 3.75-12.75 13-12.25 0 16.75 0 16.75l-8.25 4z"/>
  <path fill="#fff" fill-rule="evenodd" stroke="#000" stroke-width="2.5" d="M87.933832 188.950053c-3.5-.25-10.75.5-10.75-8 0-7.25431 5.77925-10.74582 11-10 5.25.75 9.5 4 9.25 9.75-.17409 4.00402-2.25 8.25-9.5 8.25zm10.198074-27.86353s9.30193-2.88647 13.05193-5.38647 6.5-6.75 4-7.75-7.75-.25-12.75 4.25c-5.000004 4.5-4.801937 6.63647-4.30193 8.88647zm-4.948074-.63647s-4.24432-8-9.75-8c-7 0-10.25 3-10.25 4.5 0 0 7.35695-.87881 12.5 3.5 5.68524 4.84043 7.5 0 7.5 0z"/>
  <path fill="#fff" fill-rule="evenodd" stroke="#000" stroke-linecap="round" stroke-width="3" d="M84.828952 220.716143s8.34392 2.15675 16.104884-3.76609c9.5-7.25 8.85433-22.39896-9.250004-27.25-17.33965-4.64614-30.85949 6.71716-29.75 22.25 1 14 11.5 23.5 16.25 24 0 0 1.25-18.25 20.000004-25.5"/>
  <path fill="#fff" fill-rule="evenodd" stroke="#000" d="M71.933832 205.700053c1.25-.25 2.25-2 .5-2.5s-3.625.25-2.875 1.5 2.625 1 2.375 1zm3.913766-1.78877c-.8915-.82372 2.50739-4.51462 3.125-3.125.5 1.125-.91782 5.16435-3.125 3.125z"/>
  <path fill="#fff" fill-rule="evenodd" stroke="#000" stroke-linejoin="bevel" stroke-width="2.5" d="M212.5 315.11218c0 .69036-.44772 1.25-1 1.25s-1-.55964-1-1.25.44772-1.25 1-1.25 1 .55964 1 1.25z" color="#000" style="marker:none" transform="rotate(29.744 404.54267936 21.84188028)"/>
  <path fill="#fff" fill-rule="evenodd" stroke="#000" stroke-linejoin="bevel" stroke-width="2.7849305" d="M212.5 315.11218c0 .69036-.44772 1.25-1 1.25s-1-.55964-1-1.25.44772-1.25 1-1.25 1 .55964 1 1.25z" color="#000" style="marker:none" transform="rotate(29.744 319.18987805 13.35156185) scale(.89769)"/>
  <path fill="#fff" fill-rule="evenodd" stroke="#000" stroke-width="2.5" d="M108.436676 240.917673c-1.23077.23077-4.07466 3.25972-3.93883 6.65526.13582 3.39555 2.85226 6.92691 5.29705 5.70451 2.44479-1.22239 3.1239-5.16122 3.25972-7.47019.13582-2.30896-.27165-5.70451-4.61794-4.88958z"/>
  <path fill="#fff" fill-rule="evenodd" stroke="#000" stroke-width="2.5" d="M116.042696 238.224103c-1.23077.23077-3.66719 4.07465-3.53136 7.47019.13582 3.39555 1.49404 7.33437 3.93883 6.11197 2.44479-1.22239 4.07465-5.43286 4.21047-7.74183.13582-2.30896-.27165-6.65526-4.61794-5.84033z"/>
  <path fill="#fff" fill-rule="evenodd" stroke="#000" stroke-width="2.5" d="M127.587536 244.856493s-.95392 4.44797-3.53136 4.75376c-2.16222.25654-4.75376-1.76568-4.48212-6.9269.27165-5.16122 1.68969-6.02469 3.59119-6.43215 1.90151-.40747 2.65661-.49476 2.92826 4.39482.27164 4.88959 1.76567 4.48212 1.49403 4.21047z"/>
  <path fill="#fff" fill-rule="evenodd" stroke="#000" stroke-width="2.5" d="M135.601016 232.904183c-2.98808-1.49403-8.76781-.81084-9.10005 3.66719-.29215 3.93766.53922 9.4558 3.66718 9.23588 4.46847-.31417 2.87019-5.21503 5.43287-12.90307z"/>
</svg>