<?xml version="1.0" encoding="UTF-8"?>
<svg width="533.8717" height="484.49844" xmlns="http://www.w3.org/2000/svg">
 <title>Witch's cottage</title>

 <metadata>image/svg+xmlOpen Clip Art LibraryWitch's cottage2008-07-11T13:24:45http://openclipart.org/detail/17709/witchs-cottage-by-lemmlinglemmlingcabincabincartooncartoonclip artclipartcolourcolourcottagecottagefairytalefairytalehousehouseimagemediapngpublic domainsvgwitchs cottagewitchs cottage</metadata>
 <g>
  <title>Layer 1</title>
  <path fill="#000000" fill-rule="nonzero" stroke-width="2" stroke-linecap="round" stroke-linejoin="round" stroke-miterlimit="4" id="path3171" d="m454.761292,156.473907a11.048079,14.914901 0 1 1 -22.09613,12.757202a11.048079,14.914901 0 1 1 22.09613,-12.757202z"/>
  <path fill="#000000" fill-rule="nonzero" stroke-width="2" stroke-linecap="round" stroke-linejoin="round" stroke-miterlimit="4" id="path3173" d="m457.453094,161.487152a3.226474,18.903463 0 1 1 -6.452942,14.064011a3.226474,18.903463 0 1 1 6.452942,-14.064011z"/>
  <path fill="#000000" fill-rule="nonzero" stroke-width="2" stroke-linecap="round" stroke-linejoin="round" stroke-miterlimit="4" id="path3175" d="m429.400085,140.208435c7.41272,-0.84201 12.080627,1.888092 12.399597,7.335419c0.337036,5.756378 -1.236633,8.474182 -10.624756,6.977753c-6.48822,-1.034149 -1.836182,-5.320953 -17.760071,-1.237c1.600891,-4.175049 5.74823,-7.780396 9.346619,-9.16098c2.978455,-1.142761 2.541321,-3.449768 6.638611,-3.915192z"/>
  <path fill="#ffffff" fill-rule="evenodd" stroke="#000000" stroke-width="4" stroke-linejoin="round" stroke-miterlimit="4" id="path3270" d="m407.420959,424.32135c-50.930237,-73.915771 -31.112671,-231.223907 -9.192383,-227.688354c21.920288,3.535522 46.669067,57.982758 62.932495,67.882233c16.263428,9.899506 -7.071045,51.618805 -7.071045,51.618805c0,0 23.334473,-26.870056 16.97052,-45.254852c-6.363953,-18.384766 44.547729,-9.899475 50.911682,-2.82843c6.364014,7.071075 9.899536,19.091888 9.899536,19.091888c0,0 0,-19.091888 -9.899536,-28.284241c-9.899475,-9.192413 -45.961914,-3.535553 -54.447205,-8.485291c-8.485291,-4.949768 -38.183777,-38.8909 -36.062439,-50.20459c2.121338,-11.31369 36.062439,-14.849243 41.012207,-6.363953c4.949707,8.48526 4.949707,14.849243 4.949707,14.849243c0,0 1.414246,-24.041656 -4.242615,-26.162964c-5.65686,-2.121307 -46.663208,0.455627 -65.053833,-2.82843c-9.179749,-1.639221 -17.19635,-5.459473 -27.023865,-1.276978c-11.185486,4.760406 -11.76416,-35.29364 -13.281189,-53.87735c-2.82843,-34.648224 14.142151,-57.982758 26.162903,-57.982758c12.020874,0 31.819824,30.405579 43.840637,26.870056c12.020813,-3.535522 21.213196,-28.991379 35.355347,-34.648224c14.142151,-5.65686 28.991394,4.242645 28.991394,4.242645c0,0 -25.455872,-21.213211 -37.476685,-9.899506c-6.553772,6.168289 -20.506104,28.991394 -31.112671,25.455841c-10.606628,-3.535522 -31.819824,-36.769547 -46.669067,-31.112686c-14.849243,5.656845 -16.263428,-37.476669 -41.012207,-43.133514c-24.748718,-5.65686 -82.731506,-2.121323 -113.844193,24.748734c-31.112701,26.870056 -36.062439,36.769562 -28.991364,43.840607c7.071075,7.071075 18.384766,9.192413 18.384766,9.192413c0,0 -11.31369,-4.949768 -15.556335,-12.727936c-4.242645,-7.778183 41.144745,-46.576553 67.882248,-53.033005c36.374756,-8.783615 67.846741,-3.692398 73.382263,-1.121323c7.170044,3.330246 -29.541626,13.849243 -31.662964,25.162949c-2.121338,11.313705 4.949768,23.334518 4.949768,23.334518c0,0 -4.949768,-15.556335 -1.414246,-21.920303c3.535522,-6.363968 25.758606,-18.189926 33.062439,-15.142136c6.903198,2.8806 14.763977,29.246597 9.162964,40.67807c-4.797119,9.790833 -7.845337,36.046448 -11.819763,38.103668c-19.718689,10.206665 -61.518311,-43.840622 -71.417847,-50.204575c-9.899475,-6.363968 -32.526901,5.65686 -32.526901,5.65686c0,0 16.970566,-4.242645 24.748764,0.707092c7.778137,4.949753 38.183716,36.769577 38.890869,45.96196c0.707092,9.192383 -24.748779,23.334503 -24.748779,31.819794c0,8.485291 16.970581,13.435028 16.970581,13.435028c0,0 -9.899475,-7.778168 -11.313721,-13.435028c-1.414185,-5.65686 24.041626,-24.748749 33.234009,-24.748749c9.192444,0 25.969788,14.269623 31.112732,29.698517c5.65686,16.970551 -13.381531,32.396545 -12.727905,48.083252c0.707092,16.970551 18.099487,110.40509 -12.020813,155.563507c-30.1203,45.158386 -25.633484,81.823059 -25.633484,81.823059c34.471802,-1.818542 66.957397,8.279663 103.415222,-5.455566z"/>
  <path fill="#000000" fill-rule="nonzero" stroke-width="2" stroke-linecap="round" stroke-linejoin="round" stroke-miterlimit="4" id="path3178" d="m449.245087,182.310257a2.818974,5.536986 0 1 1 -5.63797,0a2.818974,5.536986 0 1 1 5.63797,0z"/>
  <path fill="#000000" fill-rule="nonzero" stroke-width="2" stroke-linecap="round" stroke-linejoin="round" stroke-miterlimit="4" id="path3180" d="m445.064972,182.008545a3.382768,5.536986 0 1 1 -6.765533,0a3.382768,5.536986 0 1 1 6.765533,0z"/>
  <path fill="#ffffff" fill-rule="evenodd" stroke="#000000" stroke-width="4" stroke-linecap="round" stroke-linejoin="round" stroke-miterlimit="4" id="path2385" d="m321.541382,227.82309c-76.22142,13.651733 -146.158615,9.707703 -214.037369,0c-6.293365,0.043396 -112.580612,103.220917 -105.130096,105.130096c71.923248,10.573425 142.323273,11.245789 210.88974,0l108.277725,-105.130096z"/>
  <path fill="#ffffff" fill-rule="nonzero" stroke="#000000" stroke-width="4" stroke-linecap="round" stroke-linejoin="round" stroke-miterlimit="4" id="path3164" d="m126.42894,236.023621l-96.86673,92.881958c13.713501,49.325317 14.55484,94.789001 13.799316,139.773621l164.409241,6.993408l183.585678,-32.659363c-5.32074,-36.520569 -10.444641,-73.088013 14.348206,-116.778503l-182.318924,-5.215698l-96.956787,-84.995422z"/>
  <path fill="#ffffff" fill-rule="nonzero" stroke="#000000" stroke-width="4" stroke-linecap="round" stroke-linejoin="round" stroke-miterlimit="4" id="path3378" d="m207.770767,475.672607c-0.506744,-50.233093 -2.36676,-100.15387 15.61496,-154.653564l182.318924,5.215698c-16.633057,45.319336 -19.668945,80.257935 -14.348206,116.778503l-183.585678,32.659363z"/>
  <path fill="#ffffff" fill-rule="evenodd" stroke="#000000" stroke-width="4" stroke-linecap="round" stroke-linejoin="round" stroke-miterlimit="4" id="path2383" d="m107.504013,227.82309c76.221405,13.651733 146.1586,9.707703 214.037369,0c12.124634,-2.997253 109.336731,99.086761 105.130066,105.130096c-17.453125,2.565796 -34.584717,6.411011 -51.537598,7.063782c-7.940125,0.305725 -6.661987,-1.434387 -7.299133,-4.465454c-0.637146,-3.031006 -3.332703,-4.369446 -4.238159,-5.341797c-1.076965,-1.156372 -6.875061,-6.711304 -7.752747,-3.971497c-0.551819,1.722473 4.670898,8.2146 4.162109,10.605103c-0.673218,3.163147 -4.149841,5.239563 -4.541992,5.276367c-46.092834,4.328918 -91.488098,3.965027 -139.682205,-9.166504c-9.626495,-1.712585 -108.375,-104.993866 -108.27771,-105.130096z"/>
  <path fill="#ffffff" fill-rule="evenodd" stroke="#000000" stroke-width="4" stroke-linecap="round" stroke-linejoin="round" stroke-miterlimit="4" id="path3387" d="m81.505234,389.017456l-15,21c-4.560287,22.848511 -2.11879,44.272949 -0.353546,68.025146l58.5,3l25.853546,-7.525146c1.723877,-22.451172 3.60968,-44.902344 -0.17157,-67.353577l-12.5,-17c-4.807373,-54.506226 -7.668396,-90.810883 -3.863037,-133.811981l-11.64035,-15.149811c2.098663,-6.678467 13.093384,-3.515778 13.093384,-3.515778l2.910004,-25.875977l-23.82843,-8.292877l-36.474884,7.207092c5.476563,55.762695 7.604126,118.309814 3.474884,179.292908z"/>
  <path fill="none" fill-rule="evenodd" stroke="#000000" stroke-width="4" stroke-linecap="round" stroke-linejoin="round" stroke-miterlimit="4" id="path3197" d="m114.505234,202.517456c-0.435211,63.140747 -0.683441,126.206726 3.5,187.5l6.5,21c3.465027,25.486023 1.177917,46.337708 0.146454,70.025146"/>
  <path fill="#ffffff" fill-rule="evenodd" stroke="#000000" stroke-width="4" stroke-linecap="round" stroke-linejoin="round" stroke-miterlimit="4" id="path3190" d="m257.170166,465.666077c-3.57637,-23.174622 -6.5103,-46.349243 -6.130173,-69.523865c0,0 4.424347,-30.350891 31.078049,-27.369507c26.819946,3 28.807068,25.369507 28.807068,25.369507c1.152832,21.807129 -1.239197,42.62915 -3.371094,63.779236l-50.38385,7.744629z"/>
  <path fill="#ffffff" fill-rule="evenodd" stroke="#000000" stroke-width="4" stroke-linecap="round" stroke-linejoin="round" stroke-miterlimit="4" id="path3192" d="m257.272827,466.866333c-3.705124,-22.674622 -6.843338,-45.513977 -5.945267,-69.504028c0,0 4.081573,-31.313354 27.369522,-27.369507c23.619507,4 25.369507,25.369507 25.369507,25.369507c1.743225,22.029846 -0.611267,42.693726 -2.75,63.429565l-44.043762,8.074463z"/>
  <path fill="#ffffff" fill-rule="evenodd" stroke="#000000" stroke-width="4" stroke-linejoin="round" stroke-miterlimit="4" id="path3203" d="m327.13739,403.069763l43.986633,-5.439697c0,0 3.492432,-34.261841 -23.622864,-30.606995c-27.138062,3.657898 -20.78125,34.982483 -20.36377,36.046692z"/>
  <path fill="#ffffff" fill-rule="evenodd" stroke="#000000" stroke-width="4" stroke-linejoin="round" stroke-miterlimit="4" id="path3205" d="m326.696655,400.843811l37.453796,-4.873413c0,0 3.259155,-31.614929 -19.363647,-28.45105c-22.646423,3.167175 -18.434692,32.260864 -18.090149,33.324463z"/>
  <path fill="none" fill-opacity="0.75" fill-rule="evenodd" stroke="#000000" stroke-width="2" stroke-linecap="round" stroke-miterlimit="4" id="path2396" d="m294.745667,380.011169c0,0 0.7948,14.774109 0.476379,23.319702c-0.322144,8.645386 -2.520569,20.102844 -2.25,28.75c0.268555,8.58252 3.137817,25.589661 3.137817,25.589661m-12.868835,2.031677c0,0 1.771667,-22.461975 0.981018,-33.121338c-0.528992,-7.131836 -3.643494,-16.357483 -4,-23.5c-0.217346,-4.354919 1.061523,-10.140137 1,-14.5c-0.077698,-5.503113 -2.340698,-16.446533 -2.340698,-16.446533m-12.683899,2.431274c0,0 2.296875,17.820984 3.024597,24.265259c0.839233,7.432129 2.771301,17.27417 3,24.75c0.192993,6.308167 -1.640442,14.700928 -1.25,21c0.374023,6.033813 2.797424,16.813904 2.797424,16.813904m-12.470154,2.247742c0,0 1.44342,-17.856018 0.922729,-26.811646c-0.408752,-7.030945 -2.735291,-16.226013 -3.25,-23.25c-0.680542,-9.286926 -0.230286,-31.038635 -0.230286,-31.038635"/>
  <path fill="#000000" fill-rule="evenodd" stroke="#000000" stroke-width="4" stroke-miterlimit="4" id="path3272" d="m356.391663,175.730469c-10.814758,3.32196 -13.9151,20.115997 -8.131714,34.648254c3.982483,10.006989 15.909912,-16.263458 15.556335,-18.384796c-0.353516,-2.121307 1.246582,-18.926971 -7.424622,-16.263458z"/>
  <path fill="#ffffff" fill-rule="nonzero" stroke="#000000" stroke-width="2" stroke-linecap="round" stroke-linejoin="round" stroke-miterlimit="4" id="rect2396" d="m236.209885,399.579102c0,0 -0.509338,-1.899841 2.455231,-2.285767c2.822693,-0.367493 2.958618,1.580933 2.958618,1.580933l7.595825,58.347229c0,0 -0.146759,-1.947021 -2.958618,-1.580994c-2.669464,0.347534 -2.455261,2.285767 -2.455261,2.285767l-7.595795,-58.347168z"/>
  <path fill="#ffffff" fill-rule="evenodd" stroke="#000000" stroke-width="2" stroke-linejoin="round" stroke-miterlimit="4" id="path3169" d="m244.338913,455.894409c-6.783478,5.228455 -2.607513,12.465759 -2.433899,16.211731c0.295654,6.37915 -6.717255,11.392334 -6.717255,11.392334c0,0 7.705505,-1.408508 11.776031,-4.028809c3.596893,-2.31543 4.109589,-6.774414 4.109589,-6.774414c0,0 1.995728,4.375183 4.47998,5.656189c2.484299,1.281006 7.651901,-0.104797 7.651901,-0.104797c0,0 -6.32312,-1.75238 -7.604233,-7.745239c-1.281067,-5.992859 2.896957,-12.019775 -4.640625,-15.086182c-2.133209,-0.867798 -5.319305,-0.524475 -6.62149,0.479187z"/>
  <path fill="#ffffff" fill-rule="evenodd" stroke="#000000" stroke-width="4" stroke-linejoin="round" stroke-miterlimit="4" id="path3198" d="m73.546158,210.615753l40.959076,-8.098297l26.757904,9.318329l1.965149,-15.238861l-27.996338,-15.354767l-42.473389,10.704956l0.787598,18.66864zm40.959076,-8.098297l0.726715,-21.275299"/>
  <path fill="#ffffff" fill-rule="evenodd" stroke="#000000" stroke-width="2" stroke-linejoin="round" stroke-miterlimit="4" id="path2403" d="m251.529938,417.158112c-0.021011,-0.356506 11.720734,-4.017029 17.67807,-3.845337c6.133972,0.176788 13.440369,1.448944 20.704315,0.584137c7.438202,-0.88559 14.765778,-3.540497 14.760864,-2.949036c-0.002014,0.241364 -0.359253,13.733063 -0.30426,12.53717c0.046875,-1.01947 -7.37207,4.086945 -18.529724,1.325745c-12.072296,-2.987518 -33.74176,2.518982 -33.538376,2.664154c0.275558,0.196655 -0.750473,-9.970642 -0.770889,-10.316833z"/>
  <path fill="#333333" fill-rule="nonzero" stroke="#000000" stroke-width="2.83065" stroke-linecap="round" stroke-linejoin="round" stroke-miterlimit="4" id="path3176" d="m301.38678,417.811981a3.7619,3.7619 0 1 1 -7.523804,0a3.7619,3.7619 0 1 1 7.523804,0z"/>
 </g>
</svg>